<?xml version="1.0" encoding="UTF-8" standalone="no"?>
<svg
   xmlns:dc="http://purl.org/dc/elements/1.1/"
   xmlns:cc="http://creativecommons.org/ns#"
   xmlns:rdf="http://www.w3.org/1999/02/22-rdf-syntax-ns#"
   xmlns:svg="http://www.w3.org/2000/svg"
   xmlns="http://www.w3.org/2000/svg"
   xmlns:sodipodi="http://sodipodi.sourceforge.net/DTD/sodipodi-0.dtd"
   xmlns:inkscape="http://www.inkscape.org/namespaces/inkscape"
   width="32"
   height="32"
   version="1.1"
   viewBox="0 0 32 32"
   id="svg899"
   sodipodi:docname="gnome-bedtime-icon.svg"
   inkscape:version="1.0.2 (394de47547, 2021-03-26)"
   inkscape:export-filename="/home/ionut/work/java/projects/gnome-bedtime/extras/images/gnome-bedtime-icon.png"
   inkscape:export-xdpi="96"
   inkscape:export-ydpi="96">
  <sodipodi:namedview
     pagecolor="#ffffff"
     bordercolor="#666666"
     borderopacity="1"
     objecttolerance="10"
     gridtolerance="10"
     guidetolerance="10"
     inkscape:pageopacity="0"
     inkscape:pageshadow="2"
     inkscape:window-width="1920"
     inkscape:window-height="1043"
     id="namedview891"
     showgrid="false"
     inkscape:zoom="15.336323"
     inkscape:cx="13.6921"
     inkscape:cy="16.271466"
     inkscape:window-x="0"
     inkscape:window-y="0"
     inkscape:window-maximized="1"
     inkscape:current-layer="layer1"
     scale-x="1"
     inkscape:document-rotation="0" />
  <metadata
     id="metadata905">
    <rdf:RDF>
      <cc:Work
         rdf:about="">
        <dc:format>image/svg+xml</dc:format>
        <dc:type
           rdf:resource="http://purl.org/dc/dcmitype/StillImage" />
        <dc:title></dc:title>
      </cc:Work>
    </rdf:RDF>
  </metadata>
  <defs
     id="defs903" />
  <g
     inkscape:groupmode="layer"
     id="layer2"
     inkscape:label="outlines"
     style="display:inline">
    <g
       aria-label="z"
       transform="matrix(0.97592306,0,0,0.97592301,-0.21926868,-3.5320736)"
       id="text846-9-8"
       style="font-style:normal;font-variant:normal;font-weight:bold;font-stretch:normal;font-size:25.3467px;line-height:1.25;font-family:Dyuthi;-inkscape-font-specification:'Dyuthi Bold';letter-spacing:0px;word-spacing:0px;fill:#000000;fill-opacity:1;stroke:none;stroke-width:0.325267">
      <path
         d="m 25.208646,32.028257 h 3.66339 q 1.349019,0 1.398524,0.903471 l 0.02475,0.482677 q 0.02475,0.606439 -0.259903,0.952976 -0.284655,0.334161 -1.138621,0.321785 H 22.00318 q -0.532182,0 -0.915848,-0.383666 -0.383666,-0.396042 -0.37129,-0.853966 0,-0.457924 0.272279,-0.84159 l 4.789636,-6.683212 h -3.452993 q -0.891095,0 -1.225256,-0.878719 v -0.0495 Q 20.876935,24.35494 21.2606,23.822758 21.644266,23.2782 22.324964,23.2782 h 6.472814 q 0.544558,0 0.952977,0.408418 0.383666,0.408419 0.383666,0.903472 0,0.495052 -0.272279,0.878718 z"
         style="fill:#000000;stroke-width:0.325267"
         id="path896" />
    </g>
    <g
       aria-label="z"
       transform="matrix(0.97592306,0,0,0.97592301,0.16854582,-2.5266233)"
       id="text846-9"
       style="font-style:normal;font-variant:normal;font-weight:bold;font-stretch:normal;font-size:35.4141px;line-height:1.25;font-family:Dyuthi;-inkscape-font-specification:'Dyuthi Bold';letter-spacing:0px;word-spacing:0px;fill:#000000;fill-opacity:1;stroke:none;stroke-width:0.454458">
      <path
         d="m 24.750891,16.309067 h 5.118444 q 1.884833,0 1.954001,1.262319 l 0.03458,0.67439 q 0.03458,0.84731 -0.363133,1.331487 -0.397717,0.466885 -1.590868,0.449593 h -9.631667 q -0.743557,0 -1.279611,-0.536053 -0.536053,-0.553346 -0.518761,-1.193151 0,-0.639806 0.380425,-1.175859 l 6.69202,-9.3377019 h -4.82448 q -1.245027,0 -1.711912,-1.2277349 V 6.487188 Q 18.698677,5.5880019 19.23473,4.8444441 19.770783,4.0835943 20.721845,4.0835943 h 9.043738 q 0.76085,0 1.331487,0.5706374 0.536053,0.5706373 0.536053,1.262319 0,0.6916816 -0.380424,1.2277349 z"
         style="fill:#000000;stroke-width:0.454458"
         id="path899" />
    </g>
    <g
       aria-label="z"
       transform="matrix(0.97592306,0,0,0.97592301,-0.02106989,-3.0972672)"
       id="text846"
       style="font-style:normal;font-variant:normal;font-weight:bold;font-stretch:normal;font-size:48.5987px;line-height:1.25;font-family:Dyuthi;-inkscape-font-specification:'Dyuthi Bold';letter-spacing:0px;word-spacing:0px;fill:#000000;fill-opacity:1;stroke:none;stroke-width:0.623652">
      <path
         d="m 8.8872444,26.104451 h 7.0240306 q 2.586552,0 2.681472,1.732278 l 0.04746,0.925463 q 0.04746,1.162762 -0.498326,1.827198 -0.545786,0.640705 -2.183145,0.616975 H 2.7412172 q -1.0203829,0 -1.75600778,-0.735625 -0.73562488,-0.759354 -0.71189504,-1.637358 0,-0.878004 0.52205636,-1.613629 L 9.9788168,14.405642 H 3.3581929 q -1.7085481,0 -2.3492536,-1.684818 v -0.09492 Q 0.58180223,11.391953 1.3174271,10.37157 2.053052,9.3274577 3.3581929,9.3274577 H 15.768896 q 1.044113,0 1.827198,0.7830843 0.735625,0.783085 0.735625,1.732278 0,0.949194 -0.522057,1.684818 z"
         style="fill:#000000;stroke-width:0.623652"
         id="path902" />
    </g>
  </g>
  <g
     inkscape:groupmode="layer"
     id="layer1"
     inkscape:label="main"
     style="display:inline">
    <path
       d="m 9.3271489,23.067371 6.8549131,5e-6 q 2.524277,6e-6 2.61691,1.690571 l 0.04631,0.90318 q 0.04632,1.134766 -0.486327,1.783205 -0.532645,0.625278 -2.130582,0.60212 l -12.8992777,1e-6 q -0.9958136,-3.4e-5 -1.713727,-0.717915 -0.71791343,-0.74107 -0.69475484,-1.597934 -4.34e-6,-0.856865 0.50948684,-1.574778 L 10.392437,11.650239 H 3.9312177 q -1.6674117,-3e-6 -2.2926909,-1.644253 l 1e-7,-0.092633 Q 1.2216739,8.7091054 1.9395873,7.713291 2.6575006,6.6943178 3.9312176,6.6943184 l 12.1118924,-1.6e-6 q 1.018973,-2.53e-5 1.783205,0.7642306 0.717912,0.7642296 0.717912,1.6905707 4e-6,0.9263409 -0.509488,1.6442529 z"
       style="font-style:normal;font-variant:normal;font-weight:bold;font-stretch:normal;font-size:48.5987px;line-height:1.25;font-family:Dyuthi;-inkscape-font-specification:'Dyuthi Bold';letter-spacing:0px;word-spacing:0px;fill:#ff6600;fill-opacity:1;stroke:none;stroke-width:0.608638"
       id="path902-6" />
    <g
       aria-label="z"
       transform="matrix(0.97592306,0,0,0.97592301,0.56393868,-2.051054)"
       id="text846-9-7"
       style="font-style:normal;font-variant:normal;font-weight:bold;font-stretch:normal;font-size:35.4141px;line-height:1.25;font-family:Dyuthi;-inkscape-font-specification:'Dyuthi Bold';letter-spacing:0px;word-spacing:0px;fill:#ff6600;fill-opacity:1;stroke:none;stroke-width:0.454458">
      <path
         d="m 24.923738,16.329519 h 5.118444 q 1.884833,0 1.954001,1.262319 l 0.03458,0.67439 q 0.03458,0.84731 -0.363133,1.331487 -0.397717,0.466885 -1.590868,0.449593 h -9.631667 q -0.743557,0 -1.279611,-0.536053 -0.536053,-0.553346 -0.518761,-1.193151 0,-0.639806 0.380425,-1.175859 l 6.69202,-9.3377022 h -4.82448 q -1.245027,0 -1.711912,-1.2277349 V 6.5076397 Q 18.871524,5.6084536 19.407577,4.8648958 19.94363,4.104046 20.894692,4.104046 h 9.043738 q 0.76085,0 1.331487,0.5706374 0.536053,0.5706373 0.536053,1.262319 0,0.6916816 -0.380424,1.2277349 z"
         style="fill:#ff6600;stroke-width:0.454458"
         id="path899-5" />
    </g>
    <g
       aria-label="z"
       transform="matrix(0.97592306,0,0,0.97592301,0.2658133,-3.0664464)"
       id="text846-9-8-3"
       style="font-style:normal;font-variant:normal;font-weight:bold;font-stretch:normal;font-size:25.3467px;line-height:1.25;font-family:Dyuthi;-inkscape-font-specification:'Dyuthi Bold';letter-spacing:0px;word-spacing:0px;fill:#ff6600;fill-opacity:1;stroke:none;stroke-width:0.325267">
      <path
         d="m 25.208646,32.028257 h 3.66339 q 1.349019,0 1.398524,0.903471 l 0.02475,0.482677 q 0.02475,0.606439 -0.259903,0.952976 -0.284655,0.334161 -1.138621,0.321785 H 22.00318 q -0.532182,0 -0.915848,-0.383666 -0.383666,-0.396042 -0.37129,-0.853966 0,-0.457924 0.272279,-0.84159 l 4.789636,-6.683212 h -3.452993 q -0.891095,0 -1.225256,-0.878719 v -0.0495 Q 20.876935,24.35494 21.2606,23.822758 21.644266,23.2782 22.324964,23.2782 h 6.472814 q 0.544558,0 0.952977,0.408418 0.383666,0.408419 0.383666,0.903472 0,0.495052 -0.272279,0.878718 z"
         style="fill:#ff6600;stroke-width:0.325267"
         id="path896-5" />
    </g>
  </g>
</svg>
